<?xml version="1.0" encoding="UTF-8" standalone="no"?>
<!-- Created with Inkscape (http://www.inkscape.org/) -->

<svg
   xmlns:dc="http://purl.org/dc/elements/1.1/"
   xmlns:cc="http://creativecommons.org/ns#"
   xmlns:rdf="http://www.w3.org/1999/02/22-rdf-syntax-ns#"
   xmlns:svg="http://www.w3.org/2000/svg"
   xmlns="http://www.w3.org/2000/svg"
   xmlns:xlink="http://www.w3.org/1999/xlink"
   xmlns:sodipodi="http://sodipodi.sourceforge.net/DTD/sodipodi-0.dtd"
   xmlns:inkscape="http://www.inkscape.org/namespaces/inkscape"
   width="401.75604"
   height="360.39999"
   viewBox="0 0 401.75605 360.4"
   id="svg2"
   version="1.1"
   inkscape:version="0.91 r"
   sodipodi:docname="raster.svg">
  <defs
     id="defs4">
    <linearGradient
       inkscape:collect="always"
       xlink:href="#b"
       id="linearGradient4272"
       gradientUnits="userSpaceOnUse"
       gradientTransform="translate(0,-2.06)"
       x1="322"
       y1="179"
       x2="-29.700001"
       y2="445" />
    <linearGradient
       id="b"
       y2="445"
       gradientUnits="userSpaceOnUse"
       y1="179"
       gradientTransform="translate(0,-2.06)"
       x2="-29.700001"
       x1="322">
      <stop
         stop-color="#333"
         offset="0"
         id="stop7" />
      <stop
         stop-color="#fff"
         stop-opacity="0"
         offset="1"
         id="stop9" />
    </linearGradient>
  </defs>
  <sodipodi:namedview
     id="base"
     pagecolor="#ffffff"
     bordercolor="#666666"
     borderopacity="1.0"
     inkscape:pageopacity="0.0"
     inkscape:pageshadow="2"
     inkscape:zoom="1.1265625"
     inkscape:cx="133.82531"
     inkscape:cy="132.98782"
     inkscape:document-units="px"
     inkscape:current-layer="layer1"
     showgrid="false"
     units="px"
     fit-margin-top="10"
     fit-margin-left="10"
     fit-margin-right="10"
     fit-margin-bottom="10" />
  <metadata
     id="metadata7">
    <rdf:RDF>
      <cc:Work
         rdf:about="">
        <dc:format>image/svg+xml</dc:format>
        <dc:type
           rdf:resource="http://purl.org/dc/dcmitype/StillImage" />
        <dc:title></dc:title>
      </cc:Work>
    </rdf:RDF>
  </metadata>
  <g
     inkscape:label="Layer 1"
     inkscape:groupmode="layer"
     id="layer1"
     transform="translate(-242.95,-304.95)">
    <g
       id="g4264"
       transform="translate(228.58604,285.35)">
      <path
         id="path16"
         d="M 403,247 C 391,362 268,369 35,370 c -4.3,-1.07 -7.32,-7.33 -6,-41 76,-37 151,-124 167,-236 93,123 201,40.9 207,154 z"
         style="fill:url(#linearGradient4272)"
         inkscape:connector-curvature="0" />
      <g
         transform="matrix(1.36,0,0,1.28,-161,-636)"
         id="RasterLarge">
        <path
           id="path27"
           d="m 287,730 -30,0 0,-60 20,0 0,20 10,0 0,10 10,0 0,10 20,0 0,10 40,0 0,-10 20,0 0,-20 10,0 0,-20 -10,0 0,-10 -10,0 0,-10 -40,0 0,-10 -30,0 0,-10 -20,0 0,-10 -10,0 0,-10 -10,0 0,-60 10,0 0,-10 10,0 0,-10 10,0 0,-10 90,0 0,10 30,0 0,60 -20,0 0,-10 -10,0 0,-20 -10,0 0,-10 -20,0 0,-10 -30,0 0,10 -20,0 0,10 -10,0 0,20 10,0 0,20 30,0 0,10 30,0 0,10 30,0 0,10 10,0 0,10 10,0 0,10 10,0 0,60 -10,0 0,10 -10,0 0,10 -10,0 0,10 -100,0 0,-10 z"
           inkscape:connector-curvature="0"
           style="fill:#999999" />
        <path
           id="path29"
           d="m 297,730 -30,0 0,-10 -10,0 0,-50 20,0 0,20 10,0 0,20 10,0 10,0 0,10 60,0 0,-10 10,0 0,-10 10,0 0,-40 -20,0 0,-10 -20,0 0,-10 -40,0 0,-10 -20,0 0,-10 -20,0 0,-20 -10,0 0,-50 10,0 0,-10 10,0 0,-10 20,0 0,-10 70,0 0,10 30,0 0,10 10,0 0,50 -20,0 0,-20 -10,0 0,-20 -20,0 0,-10 -50,0 0,10 -10,0 0,10 -10,0 0,30 10,0 0,10 20,0 0,10 30,0 0,10 30,0 0,10 20,0 0,10 10,0 0,10 10,0 0,50 -10,0 0,20 -10,0 0,10 -20,0 0,10 -80,0 z"
           inkscape:connector-curvature="0"
           style="fill:#555555" />
        <path
           id="path31"
           d="m 307,730 -30,0 0,-10 -20,0 0,-50 20,0 0,30 10,0 0,10 10,0 0,10 70,0 0,-10 20,0 0,-50 -10,0 0,-10 -20,0 0,-10 -40,0 0,-10 -30,0 0,-10 -10,0 0,-10 -10,0 0,-20 -10,0 0,-30 10,0 0,-20 20,0 0,-10 20,0 0,-10 50,0 0,10 30,0 0,10 20,0 0,50 -20,0 0,-30 -10,0 0,-10 -10,0 0,-10 -70,0 0,10 -10,0 0,40 10,0 0,10 10,0 0,10 30,0 0,10 40,0 0,10 20,0 0,10 10,0 0,20 10,0 0,40 -10,0 0,20 -20,0 0,10 -30,0 0,10 -50,0 0,-10 z"
           inkscape:connector-curvature="0" />
      </g>
      <use
         id="use48"
         x="0"
         y="0"
         width="100%"
         height="100%"
         transform="matrix(0.173,0,0,0.173,-8.25,314)"
         xlink:href="#RasterLarge" />
    </g>
  </g>
</svg>
