<?xml version="1.0" encoding="UTF-8" standalone="no"?>
<!-- Created with Inkscape (http://www.inkscape.org/) -->

<svg
   xmlns:dc="http://purl.org/dc/elements/1.1/"
   xmlns:cc="http://creativecommons.org/ns#"
   xmlns:rdf="http://www.w3.org/1999/02/22-rdf-syntax-ns#"
   xmlns:svg="http://www.w3.org/2000/svg"
   xmlns="http://www.w3.org/2000/svg"
   xmlns:sodipodi="http://sodipodi.sourceforge.net/DTD/sodipodi-0.dtd"
   xmlns:inkscape="http://www.inkscape.org/namespaces/inkscape"
   width="164"
   height="164"
   viewBox="0 0 164 164"
   id="svg2"
   version="1.1"
   inkscape:version="0.91 r13725"
   sodipodi:docname="aliased.svg">
  <defs
     id="defs4" />
  <sodipodi:namedview
     id="base"
     pagecolor="#ffffff"
     bordercolor="#666666"
     borderopacity="1.0"
     inkscape:pageopacity="0.0"
     inkscape:pageshadow="2"
     inkscape:zoom="2.0863281"
     inkscape:cx="207.28402"
     inkscape:cy="78.928401"
     inkscape:document-units="px"
     inkscape:current-layer="layer1"
     showgrid="false"
     fit-margin-top="10"
     fit-margin-left="10"
     fit-margin-bottom="10"
     fit-margin-right="10"
     units="px" />
  <metadata
     id="metadata7">
    <rdf:RDF>
      <cc:Work
         rdf:about="">
        <dc:format>image/svg+xml</dc:format>
        <dc:type
           rdf:resource="http://purl.org/dc/dcmitype/StillImage" />
        <dc:title></dc:title>
      </cc:Work>
    </rdf:RDF>
  </metadata>
  <g
     inkscape:label="Layer 1"
     inkscape:groupmode="layer"
     id="layer1"
     transform="translate(-205.4076,-159.65587)">
    <path
       style="shape-rendering:crispEdges"
       inkscape:connector-curvature="0"
       id="path25"
       d="m 215.4076,285.65587 0,-28 8,0 0,-8 8,0 0,-8 16,0 0,-8 16,0 0,-8 8,0 0,-8 16,0 0,-8 8,0 0,-8 16,0 0,-8 16,0 0,-8 8,0 0,-8 16,0 0,-8 8,0 0,56 -8,0 0,8 -16,0 0,8 -8,0 0,8 -16,0 0,8 -8,0 0,8 -16,0 0,8 -16,0 0,8 -8,0 0,8 -16,0 0,8 -8,0 0,8 -16,0 0,8 -8,0 0,-28 z" />
  </g>
</svg>
