<?xml version="1.0" encoding="UTF-8" standalone="no"?>
<!-- Created with Inkscape (http://www.inkscape.org/) -->

<svg
   xmlns:dc="http://purl.org/dc/elements/1.1/"
   xmlns:cc="http://creativecommons.org/ns#"
   xmlns:rdf="http://www.w3.org/1999/02/22-rdf-syntax-ns#"
   xmlns:svg="http://www.w3.org/2000/svg"
   xmlns="http://www.w3.org/2000/svg"
   xmlns:sodipodi="http://sodipodi.sourceforge.net/DTD/sodipodi-0.dtd"
   xmlns:inkscape="http://www.inkscape.org/namespaces/inkscape"
   width="164"
   height="180"
   viewBox="0 0 164 180"
   id="svg2"
   version="1.1"
   inkscape:version="0.91 r13725"
   sodipodi:docname="antialiased.svg">
  <defs
     id="defs4" />
  <sodipodi:namedview
     id="base"
     pagecolor="#ffffff"
     bordercolor="#666666"
     borderopacity="1.0"
     inkscape:pageopacity="0.0"
     inkscape:pageshadow="2"
     inkscape:zoom="2.0863281"
     inkscape:cx="147.57488"
     inkscape:cy="110.14266"
     inkscape:document-units="px"
     inkscape:current-layer="layer1"
     showgrid="false"
     fit-margin-top="10"
     fit-margin-left="10"
     fit-margin-right="10"
     fit-margin-bottom="10"
     units="px" />
  <metadata
     id="metadata7">
    <rdf:RDF>
      <cc:Work
         rdf:about="">
        <dc:format>image/svg+xml</dc:format>
        <dc:type
           rdf:resource="http://purl.org/dc/dcmitype/StillImage" />
        <dc:title></dc:title>
      </cc:Work>
    </rdf:RDF>
  </metadata>
  <g
     inkscape:label="Layer 1"
     inkscape:groupmode="layer"
     id="layer1"
     transform="translate(-361.84198,-425.5339)">
    <g
       transform="translate(217.72437,179.08099)"
       style="shape-rendering:crispEdges"
       id="aa-line-zoom">
      <path
         style="fill-opacity:0.00392157"
         inkscape:connector-curvature="0"
         id="path39"
         d="m 198.11761,392.45291 -4,0 0,-4 0,-4 4,0 4,0 0,4 0,4 -4,0 z m 64,-40 -4,0 0,-4 0,-4 4,0 4,0 0,4 0,4 -4,0 z m 32,-88 -4,0 0,-4 0,-4 4,0 4,0 0,4 0,4 -4,0 z" />
      <path
         style="fill-opacity:0.01176471"
         inkscape:connector-curvature="0"
         id="path41"
         d="m 166.11761,344.45291 -4,0 0,-4 0,-4 4,0 4,0 0,4 0,4 -4,0 z m 64,-40 -4,0 0,-4 0,-4 4,0 4,0 0,4 0,4 -4,0 z" />
      <path
         style="fill-opacity:0.01960784"
         inkscape:connector-curvature="0"
         id="path43"
         d="m 158.11761,416.45291 -4,0 0,-4 0,-4 4,0 4,0 0,4 0,4 -4,0 z" />
      <path
         style="fill-opacity:0.03529412"
         inkscape:connector-curvature="0"
         id="path45"
         d="m 222.11761,376.45291 -4,0 0,-4 0,-4 4,0 4,0 0,4 0,4 -4,0 z m 48,-96 -4,0 0,-4 0,-4 4,0 4,0 0,4 0,4 -4,0 z" />
      <path
         style="fill-opacity:0.03921569"
         inkscape:connector-curvature="0"
         id="path47"
         d="m 286.11761,336.45291 -4,0 0,-4 0,-4 4,0 4,0 0,4 0,4 -4,0 z" />
      <path
         style="fill-opacity:0.04705882"
         inkscape:connector-curvature="0"
         id="path49"
         d="m 206.11761,320.45291 -4,0 0,-4 0,-4 4,0 4,0 0,4 0,4 -4,0 z" />
      <path
         style="fill-opacity:0.07058824"
         inkscape:connector-curvature="0"
         id="path51"
         d="m 182.11761,400.45291 -4,0 0,-4 0,-4 4,0 4,0 0,4 0,4 -4,0 z" />
      <path
         style="fill-opacity:0.09019608"
         inkscape:connector-curvature="0"
         id="path53"
         d="m 246.11761,296.45291 -4,0 0,-4 0,-4 4,0 4,0 0,4 0,4 -4,0 z" />
      <path
         style="fill-opacity:0.09411765"
         inkscape:connector-curvature="0"
         id="path55"
         d="m 246.11761,360.45291 -4,0 0,-4 0,-4 4,0 4,0 0,4 0,4 -4,0 z" />
      <path
         style="fill-opacity:0.11764706"
         inkscape:connector-curvature="0"
         id="path57"
         d="m 182.11761,336.45291 -4,0 0,-4 0,-4 4,0 4,0 0,4 0,4 -4,0 z" />
      <path
         style="fill-opacity:0.14901961"
         inkscape:connector-curvature="0"
         id="path59"
         d="m 206.11761,384.45291 -4,0 0,-4 0,-4 4,0 4,0 0,4 0,4 -4,0 z" />
      <path
         style="fill-opacity:0.16078431"
         inkscape:connector-curvature="0"
         id="path61"
         d="m 286.11761,272.45291 -4,0 0,-4 0,-4 4,0 4,0 0,4 0,4 -4,0 z" />
      <path
         style="fill-opacity:0.18431373"
         inkscape:connector-curvature="0"
         id="path63"
         d="m 270.11761,344.45291 -4,0 0,-4 0,-4 4,0 4,0 0,4 0,4 -4,0 z" />
      <path
         style="fill-opacity:0.2"
         inkscape:connector-curvature="0"
         id="path65"
         d="m 222.11761,312.45291 -4,0 0,-4 0,-4 4,0 4,0 0,4 0,4 -4,0 z" />
      <path
         style="fill-opacity:0.21960784"
         inkscape:connector-curvature="0"
         id="path67"
         d="m 158.11761,352.45291 -4,0 0,-4 0,-4 4,0 4,0 0,4 0,4 -4,0 z" />
      <path
         style="fill-opacity:0.24313725"
         inkscape:connector-curvature="0"
         id="path69"
         d="m 166.11761,408.45291 -4,0 0,-4 0,-4 4,0 4,0 0,4 0,4 -4,0 z" />
      <path
         style="fill-opacity:0.25490196"
         inkscape:connector-curvature="0"
         id="path71"
         d="m 230.11761,368.45291 -4,0 0,-4 0,-4 4,0 4,0 0,4 0,4 -4,0 z" />
      <path
         style="fill-opacity:0.2745098"
         inkscape:connector-curvature="0"
         id="path73"
         d="m 262.11761,288.45291 -4,0 0,-4 0,-4 4,0 4,0 0,4 0,4 -4,0 z" />
      <path
         style="fill-opacity:0.30196078"
         inkscape:connector-curvature="0"
         id="path75"
         d="m 294.11761,328.45291 -4,0 0,-4 0,-4 4,0 4,0 0,4 0,4 -4,0 z" />
      <path
         style="fill-opacity:0.3254902"
         inkscape:connector-curvature="0"
         id="path77"
         d="m 198.11761,328.45291 -4,0 0,-4 0,-4 4,0 4,0 0,4 0,4 -4,0 z" />
      <path
         style="fill-opacity:0.36862745"
         inkscape:connector-curvature="0"
         id="path79"
         d="m 190.11761,392.45291 -4,0 0,-4 0,-4 4,0 4,0 0,4 0,4 -4,0 z m 64,-40 -4,0 0,-4 0,-4 4,0 4,0 0,4 0,4 -4,0 z" />
      <path
         style="fill-opacity:0.43529412"
         inkscape:connector-curvature="0"
         id="path81"
         d="m 238.11761,304.45291 -4,0 0,-4 0,-4 4,0 4,0 0,4 0,4 -4,0 z" />
      <path
         style="fill-opacity:0.46666667"
         inkscape:connector-curvature="0"
         id="path83"
         d="m 174.11761,344.45291 -4,0 0,-4 0,-4 4,0 4,0 0,4 0,4 -4,0 z" />
      <path
         style="fill-opacity:0.50196078"
         inkscape:connector-curvature="0"
         id="path85"
         d="m 214.11761,376.45291 -4,0 0,-4 0,-4 4,0 4,0 0,4 0,4 -4,0 z" />
      <path
         style="fill-opacity:0.53333285"
         inkscape:connector-curvature="0"
         id="path87"
         d="m 278.11761,336.45291 -4,0 0,-4 0,-4 4,0 4,0 0,4 0,4 -4,0 z m 0,-56 -4,0 0,-4 0,-4 4,0 4,0 0,4 0,4 -4,0 z" />
      <path
         style="fill-opacity:0.56862745"
         inkscape:connector-curvature="0"
         id="path89"
         d="m 214.11761,320.45291 -4,0 0,-4 0,-4 4,0 4,0 0,4 0,4 -4,0 z" />
      <path
         style="fill-opacity:0.6"
         inkscape:connector-curvature="0"
         id="path91"
         d="m 174.11761,400.45291 -4,0 0,-4 0,-4 4,0 4,0 0,4 0,4 -4,0 z" />
      <path
         style="fill-opacity:0.63529412"
         inkscape:connector-curvature="0"
         id="path93"
         d="m 238.11761,360.45291 -4,0 0,-4 0,-4 4,0 4,0 0,4 0,4 -4,0 z" />
      <path
         style="fill-opacity:0.66666667"
         inkscape:connector-curvature="0"
         id="path95"
         d="m 254.11761,296.45291 -4,0 0,-4 0,-4 4,0 4,0 0,4 0,4 -4,0 z" />
      <path
         style="fill-opacity:0.70196078"
         inkscape:connector-curvature="0"
         id="path97"
         d="m 190.11761,336.45291 -4,0 0,-4 0,-4 4,0 4,0 0,4 0,4 -4,0 z" />
      <path
         style="fill-opacity:0.7372549"
         inkscape:connector-curvature="0"
         id="path99"
         d="m 198.11761,384.45291 -4,0 0,-4 0,-4 4,0 4,0 0,4 0,4 -4,0 z" />
      <path
         style="fill-opacity:0.75686275"
         inkscape:connector-curvature="0"
         id="path101"
         d="m 294.11761,272.45291 -4,0 0,-4 0,-4 4,0 4,0 0,4 0,4 -4,0 z" />
      <path
         style="fill-opacity:0.78039216"
         inkscape:connector-curvature="0"
         id="path103"
         d="m 262.11761,344.45291 -4,0 0,-4 0,-4 4,0 4,0 0,4 0,4 -4,0 z" />
      <path
         style="fill-opacity:0.8"
         inkscape:connector-curvature="0"
         id="path105"
         d="m 230.11761,312.45291 -4,0 0,-4 0,-4 4,0 4,0 0,4 0,4 -4,0 z" />
      <path
         style="fill-opacity:0.81568627"
         inkscape:connector-curvature="0"
         id="path107"
         d="m 166.11761,352.45291 -4,0 0,-4 0,-4 4,0 4,0 0,4 0,4 -4,0 z" />
      <path
         style="fill-opacity:0.83529412"
         inkscape:connector-curvature="0"
         id="path109"
         d="m 158.11761,408.45291 -4,0 0,-4 0,-4 4,0 4,0 0,4 0,4 -4,0 z" />
      <path
         style="fill-opacity:0.84705882"
         inkscape:connector-curvature="0"
         id="path111"
         d="m 222.11761,368.45291 -4,0 0,-4 0,-4 4,0 4,0 0,4 0,4 -4,0 z" />
      <path
         style="fill-opacity:0.8627451"
         inkscape:connector-curvature="0"
         id="path113"
         d="m 270.11761,288.45291 -4,0 0,-4 0,-4 4,0 4,0 0,4 0,4 -4,0 z" />
      <path
         style="fill-opacity:0.87843137"
         inkscape:connector-curvature="0"
         id="path115"
         d="m 286.11761,328.45291 -4,0 0,-4 0,-4 4,0 4,0 0,4 0,4 -4,0 z" />
      <path
         style="fill-opacity:0.89411765"
         inkscape:connector-curvature="0"
         id="path117"
         d="m 206.11761,328.45291 -4,0 0,-4 0,-4 4,0 4,0 0,4 0,4 -4,0 z" />
      <path
         style="fill-opacity:0.91764706"
         inkscape:connector-curvature="0"
         id="path119"
         d="m 182.11761,392.45291 -4,0 0,-4 0,-4 4,0 4,0 0,4 0,4 -4,0 z" />
      <path
         style="fill-opacity:0.92941176"
         inkscape:connector-curvature="0"
         id="path121"
         d="m 246.11761,352.45291 -4,0 0,-4 0,-4 4,0 4,0 0,4 0,4 -4,0 z" />
      <path
         style="fill-opacity:0.9372549"
         inkscape:connector-curvature="0"
         id="path123"
         d="m 246.11761,304.45291 -4,0 0,-4 0,-4 4,0 4,0 0,4 0,4 -4,0 z" />
      <path
         style="fill-opacity:0.96078431"
         inkscape:connector-curvature="0"
         id="path125"
         d="m 182.11761,344.45291 -4,0 0,-4 0,-4 4,0 4,0 0,4 0,4 -4,0 z" />
      <path
         style="fill-opacity:0.97254902"
         inkscape:connector-curvature="0"
         id="path127"
         d="m 206.11761,376.45291 -4,0 0,-4 0,-4 4,0 4,0 0,4 0,4 -4,0 z" />
      <path
         style="fill-opacity:0.98431373"
         inkscape:connector-curvature="0"
         id="path129"
         d="m 270.11761,336.45291 -4,0 0,-4 0,-4 4,0 4,0 0,4 0,4 -4,0 z m -48,-16 -4,0 0,-4 0,-4 4,0 4,0 0,4 0,4 -4,0 z m 64,-40 -4,0 0,-4 0,-4 4,0 4,0 0,4 0,4 -4,0 z" />
      <path
         style="fill-opacity:0.99215686"
         inkscape:connector-curvature="0"
         id="path131"
         d="m 158.11761,360.45291 -4,0 0,-4 0,-4 4,0 4,0 0,4 0,4 -4,0 z" />
      <path
         style="fill-opacity:0.99607843"
         inkscape:connector-curvature="0"
         id="path133"
         d="m 166.11551,400.45312 -4,0 0,-4 0,-4 4,0 4,0 0,4 0,4 -4,0 z" />
      <path
         inkscape:connector-curvature="0"
         id="path135"
         d="m 158.11761,400.45291 -4,0 0,-20 0,-20 4,0 4,0 0,-4 0,-4 4,0 4,0 0,-4 0,-4 8,0 8,0 0,-4 0,-4 4,0 4,0 0,-4 0,-4 8,0 8,0 0,-4 0,-4 8,0 8,0 0,-4 0,-4 4,0 4,0 0,-4 0,-4 8,0 8,0 0,-4 0,-4 4,0 4,0 0,-4 0,-4 8,0 8,0 0,-4 0,-4 8,0 8,0 0,-4 0,-4 4,0 4,0 0,24 0,24 -8,0 -8,0 0,4 0,4 -8,0 -8,0 0,4 0,4 -4,0 -4,0 0,4 0,4 -8,0 -8,0 0,4 0,4 -4,0 -4,0 0,4 0,4 -8,0 -8,0 0,4 0,4 -8,0 -8,0 0,4 0,4 -4,0 -4,0 0,4 0,4 -8,0 -8,0 0,4 0,4 -8,0 -8,0 0,4 0,4 -4,0 z" />
    </g>
  </g>
</svg>
